<?xml version="1.0" encoding="utf-8"?>
<!-- Generator: Adobe Illustrator 16.0.0, SVG Export Plug-In . SVG Version: 6.00 Build 0)  -->
<!DOCTYPE svg PUBLIC "-//W3C//DTD SVG 1.1//EN" "http://www.w3.org/Graphics/SVG/1.1/DTD/svg11.dtd">
<svg version="1.1" id="Layer_1" xmlns="http://www.w3.org/2000/svg" xmlns:xlink="http://www.w3.org/1999/xlink" x="0px" y="0px"
	 width="150px" height="150px" viewBox="0 0 150 150" enable-background="new 0 0 150 150" xml:space="preserve">
<path fill-rule="evenodd" clip-rule="evenodd" fill="#996C39" d="M42.605,1c2.361,1.64,2.279,4.238,2.48,6.647
	c0.326,3.891-0.315,7.754-0.84,11.588c-0.302,2.207,0.021,3.991,0.85,6.115c1.761,4.51,4.3,8.132,8.056,11.203
	c2.779,2.273,4.02,6.075,7.396,7.975c1.685,0.949,3.299,1.895,5.169,2.491c16.576,5.29,25.637,16.852,28.108,33.876
	c1.685,11.603,0.267,22.963-2.832,34.667c6.165-1.31,12.125-1.547,18.084-1.204c10.45,0.6,20.399,3.012,29.204,8.965
	c3.009,2.034,6.166,4.032,7.362,7.818c0.521,0.99,0.159,2.058,0.268,3.083c0.243,2.756-1.136,4.79-3.141,6.363
	c-6.485,5.079-13.648,8.47-22.106,8.411c-1.769,0-3.537,0.002-5.305,0.001c-2.386-0.026-4.973,0.201-5.796-2.837
	c-0.569-2.102,1.714-4.932,4.681-5.811c3.203-0.949,6.567-1.268,9.745-2.354c1.739-0.595,3.474-1.203,5.047-2.165
	c3.129-1.911,3.126-3.931-0.009-5.755c-3.635-2.114-7.65-2.947-11.774-3.142c-9.677-0.457-19.159,0.122-28.049,4.734
	c-3.492,1.811-7.422,2.289-11.341,1.001c-2.26-0.743-4.447-0.317-6.685,0.211c-5.776,1.361-11.572,2.623-17.571,2.434
	c-5.071-0.159-6.817-1.518-8.172-6.479c-0.593-2.172-1.819-2.519-3.403-0.931c-0.532,0.532-0.918,1.196-1.39,1.786
	c-3.372,4.228-7.811,5.046-12.81,3.982c-2.254-0.479-3.749-1.856-4.82-3.933c-3.28-6.357-3.329-6.334,1.319-11.606
	c1.462-1.66,1.667-3.768,1.732-5.779c0.234-7.224,0.161-14.454,0.044-21.682c-0.034-2.097-0.907-3.979-1.827-5.821
	c-2.313-4.633-4.605-9.277-6.944-13.896c-1.886-3.725-3.013-7.619-2.815-11.826c0.194-4.126-1.285-7.484-4.142-10.487
	c-3.712-3.902-6.466-8.367-6.305-14.068c0-1.587-0.001-3.173,0-4.759c-0.056-2.168,0.118-4.288,1.221-6.234
	c0.56-0.989,0.591-2.064,0.326-3.134c-1.038-4.194-1.121-8.499-1.505-12.769C4.06,7.038,4.04,6.391,4.088,5.75
	c0.315-4.122,2.574-5.235,6.068-2.895c2.679,1.795,5.109,3.927,7.583,5.996c4.875,4.077,12.733,3.074,16.367-2.006
	c1.738-2.43,3.35-5.043,6.556-5.844C41.31,1,41.958,1,42.605,1z"/>
</svg>
